<?xml version="1.0" encoding="UTF-8"?>
<svg viewBox="0 0 744.09448819 1052.3622047" xmlns="http://www.w3.org/2000/svg" xmlns:xlink="http://www.w3.org/1999/xlink">
 <defs>
  <linearGradient id="f" x1="209.89" x2="256.28" y1="314.44" y2="381.36" gradientTransform="matrix(.43858 -.30866 .2696 .38308 46.988 127.98)" gradientUnits="userSpaceOnUse">
   <stop stop-color="#fff" offset="0"/>
   <stop stop-color="#c0c0c0" offset="1"/>
  </linearGradient>
  <linearGradient id="a">
   <stop offset="0"/>
   <stop stop-opacity="0" offset="1"/>
  </linearGradient>
  <linearGradient id="b">
   <stop stop-color="#fff" offset="0"/>
   <stop stop-color="#fff" stop-opacity="0" offset="1"/>
  </linearGradient>
  <linearGradient id="i" x1="122.94" x2="309.23" y1="144.34" y2="253.04" gradientUnits="userSpaceOnUse">
   <stop stop-color="#fff" offset="0"/>
   <stop stop-color="#616161" offset="1"/>
  </linearGradient>
  <linearGradient id="e" x1="197.72" x2="212.81" y1="229.79" y2="241.4" gradientUnits="userSpaceOnUse" xlink:href="#a"/>
  <linearGradient id="d" x1="249.24" x2="270.31" gradientUnits="userSpaceOnUse" xlink:href="#b"/>
  <linearGradient id="h" x1="182.06" x2="183.66" y1="179.21" y2="163.76" gradientUnits="userSpaceOnUse" xlink:href="#a"/>
  <linearGradient id="g" x1="385.73" x2="387.28" y1="235.87" y2="167.12" gradientUnits="userSpaceOnUse" xlink:href="#b"/>
  <radialGradient id="c" cx="992.69" cy="111.55" r="19.209" fx="1001.5" fy="117.52" gradientTransform="matrix(.75727 -8.9465e-6 9.804e-6 .6331 -503.97 109.07)" gradientUnits="userSpaceOnUse">
   <stop stop-color="#8e8e8b" offset="0"/>
   <stop stop-color="#c3c0c5" offset="1"/>
  </radialGradient>
 </defs>
 <g transform="matrix(1.7518 0 0 1.7518 23.662 122.94)">
  <g transform="matrix(.71897 .69504 -.69504 .71897 142.6 -72.701)">
   <path d="m260.56 185.98s-68.447 70.906-117.49 123.26c-9.2887 9.9144-16.878 16.765-25.394 20.24-2.6058 1.0633-12.658 3.5448-0.5934-12.363s42.704-55.003 57.873-72.043c30.337-34.08 66.129-75.471 66.129-75.471l12.044-53.063 25.238 6.3718c-2.595-2.701-8.853 16.458-14.086 37.465-3.8331 15.386-3.7176 25.607-3.7176 25.607z" fill="url(#f)" fill-rule="evenodd" stroke="#000" stroke-width=".50122"/>
   <path d="m243.03 170.03c-33.644 40.514-70.515 78.496-102.61 120.29-8.8243 12.098-19.535 23.074-26.795 36.179-1.6444 3.3214 3.5261 1.1575 4.7812 0.46875 17.289-8.9966 28.357-26.105 42.344-39.438 32.471-34.252 65.085-68.368 97.812-102.38 1.0629-19.904 6.9494-39.513 13.781-57.938 4.0446-4.944-3.6826-4.1409-7.103-5.5711-6.631-2.3511-12.987-4.2544-12.414 5.1235l-9.7957 43.26z" fill="url(#e)" fill-rule="evenodd" opacity=".23333"/>
   <path d="m265.01 12.248c-6.8621 6.9905-11.797 15.517-15.923 24.021-4.4561 12.383 0.83003 23.819 3.1778 35.17 2.4082 10.875 3.0872 22.498 0.0676 34.017-1.1788 7.1291-3.134 14.312-2.9535 21.414 3.1576 4.9369 10.589 3.0006 15.661 4.9107 4.5647 1.9477 11.553 0.93152 12.949-5.147 3.1194-8.0526 5.0391-16.359 7.9198-24.453 1.7884-7.9734 5.6074-15.606 8.7569-23.279 3.3439-4.912 5.4845-11.682 11.296-14.348 6.5082-3.0268 15.144-4.7444 18.309-12.058 3.3481-7.3664 0.30572-14.633-2.7543-20.708-4.0309-10.483-8.8334-22.19-20.422-26.257-11.253-4.614-25.724-2.0293-36.083 6.717zm3.7854 10.664c10.41-8.7675 27.685-10.01 34.842 0.32634 5.1481 6.5751 5.2183 16.124 1.6476 24.44-2.5107 7.0172-9.1929 13.615-16.981 13.793-11.753 1.3752-21.309-6.1767-26.233-15.159-3.6174-6.9603-1.9442-17.179 5.746-22.587l0.97966-0.81188z" fill="#b30f0f" stroke="#000" stroke-width=".7"/>
   <path d="m287.62 5.3125c-12.648 0.39448-23.962 8.3896-29.906 19.469-5.7171 8.1425-10.223 17.983-7.8125 28.094 4.0665 16.813 9.2916 34.598 4.625 51.938-0.95341 7.1565-3.78 14.704-2.8125 21.812 4.7997 3.2478 11.291 1.5231 16.469 4 4.6265 0.95923 8.3782-2.6842 8.8338-7.1301 6.8153-19.6 10.588-41.179 23.791-57.682 6.6022-6.5081 19.488-5.6132 22.312-15.969 2.4965-9.6678-4.6098-18.261-7.6035-27.051-4.6266-11.438-15.649-18.291-27.897-17.481zm-0.25 8.5938c12.128-1.0488 22.812 9.6734 22.375 21.688 0.31554 13.278-8.8579 28.584-23.562 28.031-13.289 0.27232-26.224-10.477-27.906-23.688-1.2158-15.298 15.521-25.621 29.094-26.031z" fill="url(#d)" opacity=".389"/>
   <path d="m244.45 188.05c-5.3434-2.0216-7.9781-6.9501-6.1435-11.492 1.0398-2.5742 2.0522-3.5212 5.3042-4.9616 4.5572-2.0184 9.9059-0.75093 12.675 3.0035 1.5274 2.0711 1.6415 2.5023 1.423 5.3757-0.31599 4.1558-1.5216 5.9074-5.1845 7.5328-3.2568 1.4452-5.3193 1.5835-8.0738 0.54136z" fill="url(#c)" stroke="#000"/>
  </g>
  <g transform="matrix(.8436 0 0 .8436 -.88261 -22.754)" fill="none">
   <path d="m101.11 46.947s-52.959 139.69-1.3112 244.73c55.881 113.65 1.3112 220.39 1.3112 220.39" stroke="#000" stroke-width="129.11"/>
   <path d="m101.11 46.947s-52.959 139.69-1.3112 244.73c55.881 113.65 1.3112 220.39 1.3112 220.39" stroke="#fff" stroke-dasharray="21.51819663, 21.51819663" stroke-width="114.76"/>
   <path d="m101.11 46.947s-52.959 139.69-1.3112 244.73c55.881 113.65 1.3112 220.39 1.3112 220.39" stroke="#000" stroke-width="106.51"/>
   <path d="m101.11 46.947s-52.959 139.69-1.3112 244.73c55.881 113.65 1.3112 220.39 1.3112 220.39" stroke="#fff" stroke-dasharray="69.23408039, 26.62848142" stroke-width="93.2"/>
  </g>
  <path d="m405.96 196.32c-1.8661 0.46782-2.3814 0.68265 0 0z"/>
  <g transform="matrix(.99104 .13358 -.13358 .99104 -25.371 17.132)">
   <path d="m308.98 176.35-2.0219 22.075-191.07-25.166s-1.0109 0.4415-6.5711-0.44149-43.47-7.5055-48.02-9.713-11.626-4.415-11.12-6.181 3.0328-7.5055 20.724-5.298 168.83 12.803 168.83 12.803l69.249 11.92z" fill="url(#i)" fill-rule="evenodd" stroke="#000" stroke-width=".50122"/>
   <path d="m62.531 153.16c-3.5738 0.22053-8.0276 0.4228-10.156 3.6562 15.554 8.6067 33.91 9.1371 51.018 12.986 17.983 2.5396 36.193 4.29 54.372 6.9696l147.39 19.42 1.6562-18.188c-24.768-3.8253-49.327-9.3717-74.233-12.056-56.679-3.9659-113.38-8.114-169.99-12.79l-0.06293 2e-3z" fill="url(#h)" fill-rule="evenodd" opacity=".26667"/>
   <path d="m419.67 165.09c-27.262 0.14645-54.377 2.9785-81.543 4.6303-9.9106 0.90021-19.347 3.8775-29.215 4.9885-6.1684 0.10381-9.4029 3.3044-8.581 8.5288-0.44159 4.6219-0.72492 9.2542-1.1901 13.874 5.6068 4.6852 14.21 2.9255 21.055 5.0785 9.7454 2.6179 14.903 12.831 25.743 13.114 6.6582 0.45822 13.302 1.0376 19.907 1.793 15.329 0.56421 30.854 1.8434 46.034-0.78513 11.278-0.64055 21.717-4.7598 32.107-8.2644 12.082-5.347 20.326-18.279 15.769-29.95-2.4668-7.5197-11.239-11.463-19.593-12.271-6.7829-0.89194-13.662-0.57098-20.493-0.73602zm0.85471 14.682c7.3365 0.39679 17.202-1.0478 21.463 5.6412 3.8428 7.0212-1.1526 15.485-8.854 18.604-11.123 4.7075-23.818 5.3585-35.952 6.1519-14.368 0.32828-29.691 1.4706-42.983-4.285-6.1181-2.8462-11.944-9.1667-9.6942-15.461 5.0655-3.717 12.349-5.2544 18.789-6.764 9.0266-1.3079 18.233-1.2466 27.282-2.2852 10.004-0.20904 19.966-1.1179 29.949-1.6025z" fill="#b30f0f" stroke="#000" stroke-width=".50122"/>
   <path d="m417.16 167.12c-28.462 0.62189-56.999 2.8299-85.265 5.4289-8.923 2.0471-18.108 3.2059-27.016 4.9461-4.744 2.3478-1.6231 8.83-3.125 12.844-0.33876 3.0701-1.5698 6.982 2.6562 7.3438 9.0845 1.6095 19.372 1.3314 26.562 8.125 5.7327 5.4374 13.175 8.4929 21.152 7.9315 29.503 2.9233 60.378 4.6005 88.296-6.5914 12.485-3.3036 23.371-18.348 16.395-30.746-8.9075-12.064-26.701-8.4603-39.656-9.2812zm3.3438 10.656c8.2656 0.1677 20.088-1.0056 23.969 8.25 3.7236 10.035-5.6186 19.55-14.969 21.469-18.718 5.3699-38.75 5.2845-58.121 4.5345-10.989-1.1383-25.036-4.1039-28.973-15.941-1.6923-4.4971 1.048-8.7106 5.4688-9.9375 17.27-7.229 36.518-5.721 54.842-7.3087 5.9285-0.34315 11.849-0.82202 17.783-1.0663z" fill="url(#g)" opacity=".389"/>
  </g>
 </g>
</svg>
