<?xml version="1.0" encoding="UTF-8"?>
<!DOCTYPE svg  PUBLIC '-//W3C//DTD SVG 1.1//EN'  'http://www.w3.org/Graphics/SVG/1.1/DTD/svg11.dtd'>
<svg enable-background="new 0 0 146.05 182.1" version="1.1" viewBox="0 0 146.05 182.1" xml:space="preserve" xmlns="http://www.w3.org/2000/svg" xmlns:xlink="http://www.w3.org/1999/xlink">
<symbol id="ar" viewBox="0 -23.05 56.6 23.056">
		<path d="m49.3-17.2c2.767-2.066 5.2-4.017 7.3-5.85-1.633 1.133-3.633 2.367-6 3.7-4.7 2.667-8.817 4.483-12.35 5.45-3.133 0.867-6.25 1.167-9.35 0.9-3.433-0.333-6-0.333-7.7 0-1.867 0.367-8.934 1.567-21.2 3.6 0.933 1 2.1 2.1 3.5 3.3 2.833 2.367 5.45 3.967 7.85 4.8 2.467 0.867 4.883 1.3 7.25 1.3 1.5 0.033 3.967-0.067 7.4-0.3 2.967-0.133 5.933-0.983 8.9-2.55 1.467-0.8 2.65-1.583 3.55-2.35-3.133-0.233-5.617-0.55-7.45-0.95-1.467-0.333-1.983-0.684-1.55-1.05 0.533-0.433 2.7-1.216 6.5-2.35 3.367-1 7.817-3.55 13.35-7.65z" clip-rule="evenodd" fill="#7EB8BD" fill-rule="evenodd"/>
</symbol>
<symbol id="as" viewBox="0 -36.975 44.35 36.948">
		<path d="m43.05-30.25c0.703-2.65 1.136-4.892 1.3-6.725-0.307 2.724-2.857 5.916-7.65 9.575-2.167 1.633-5.833 4-11 7.1-1.067 0.633-3.3 1.45-6.7 2.45-4.367 1.333-7.35 2.3-8.95 2.9-7.367 2.833-10.683 6.367-9.95 10.6 0.6 3.367 4.367 4.767 11.3 4.2 1.7-0.133 3.5-0.383 5.4-0.75 3.867-0.733 7.55-2.417 11.05-5.05 3.233-2.433 6.017-5.433 8.35-9 3.1-4.733 5.383-9.833 6.85-15.3z" clip-rule="evenodd" fill="#7EB8D6" fill-rule="evenodd"/>
</symbol>
<symbol id="at" viewBox="0 -49.9 32.613 49.868">
		<path d="m31.15-18.8c-1.333-1.667-4.383-3.8-9.15-6.4-4.533-2.5-8.083-5.55-10.65-9.15-0.9-1.267-1.983-2.55-3.25-3.85s-2.35-2.566-3.25-3.8c-0.4-0.567-1.217-1.883-2.45-3.95-1.233-2.1-2.033-3.417-2.4-3.95 1.433 6.533 2.25 10.383 2.45 11.55 0.566 3.033 0.9 6.067 1 9.1 0.066 4.7 0.167 8.25 0.3 10.65 0.233 4.133 0.817 7.583 1.75 10.35 0.567 1.667 1.533 3.25 2.9 4.75 1.533 1.733 3.117 2.817 4.75 3.25 1.5 0.4 2.967 0.25 4.4-0.45 0.034-0.033 1.284-0.867 3.75-2.5 4.7-3.2 7.617-5.4 8.75-6.6 3-3.2 3.367-6.2 1.1-9z" clip-rule="evenodd" fill="#2EB8DB" fill-rule="evenodd"/>
</symbol>
<symbol id="au" viewBox="0.022 -22.794 36.578 22.795">
		<path d="m35.9-2.45c0.167-0.067 0.4-0.25 0.7-0.55-4.434 0.967-8.717-0.017-12.85-2.95-3.333-2.367-6.333-5.75-9-10.15-1.3-2.233-2.733-3.933-4.3-5.1-2-1.433-4.1-1.9-6.3-1.4-2.1 0.467-3.4 1.467-3.9 3-0.433 1.3-0.25 2.917 0.55 4.85 0.067 0.267 0.167 0.5 0.3 0.7 1.367 2.9 3.367 5.45 6 7.65 2.5 2.1 5.333 3.7 8.5 4.8 2.967 1.033 6.217 1.567 9.75 1.6 4.033 0.033 7.25-0.65 9.65-2.05 0.167-0.1 0.467-0.233 0.9-0.4z" clip-rule="evenodd" fill="#7EB8D6" fill-rule="evenodd"/>
</symbol>
<symbol id="av" viewBox="0.004 -18.439 22.234 18.428">
		<path d="m21.8-12.05c0.6-2.5 0.583-4.317-0.05-5.45-0.667-1.2-1.35-1.25-2.05-0.15-0.733 1.566-1.267 2.533-1.6 2.9-1.2 1.333-2.783 2.083-4.75 2.25-2.4-0.033-4.217-0.033-5.45 0-2.1 0.033-2.867 0.467-2.3 1.3 0.409 0.546 1.001 0.854 1.775 0.925l-2.425 0.125c-1.933 0.1-3.283 0.35-4.05 0.75-0.733 0.4-1.017 0.917-0.85 1.55 0.267 1.267 1.417 2.2 3.45 2.8 2.867 0.9 4.35 1.383 4.45 1.45-0.033 0.067-0.317 0.433-0.85 1.1-0.367 0.467-0.533 0.867-0.5 1.2 0.066 0.633 0.65 1.033 1.75 1.2 0.867 0.133 1.667 0.117 2.4-0.05 1.4-0.3 3.05-1.184 4.95-2.65 1.8-1.4 3.133-2.767 4-4.1 0.867-1.3 1.567-3.017 2.1-5.15z" clip-rule="evenodd" fill="#2EB8DB" fill-rule="evenodd"/>
</symbol>
<symbol id="aw" viewBox="0.05 -30.3 49.332 30.314">
		<path d="m45.45-19.9c-1.434-0.233-3.25-0.167-5.45 0.2-2.267 0.434-3.833 0.7-4.7 0.8-2.2 0.233-5.066-0.1-8.6-1-5.6-1.4-8.434-2.1-8.5-2.1-3.133-0.567-6.317-1.6-9.55-3.1-3.2-1.433-6.066-3.167-8.6-5.2 2.233 3.267 5.883 6.9 10.95 10.9 1.367 1.1 4.117 3.583 8.25 7.45 3.333 3.133 6.183 5.467 8.55 7 3.434 2.267 6.717 3.767 9.85 4.5 4.2 1 7.517 0.383 9.95-1.85 1.566-1.434 2.1-2.967 1.6-4.6-0.467-1.633-1.3-2-2.5-1.1-1.2 0.867-2.983 1.4-5.35 1.6-2.633 0.233-5.067-0.083-7.3-0.95-2.066-0.8-3.617-1.767-4.65-2.9-1.066-1.2-1.1-1.55-0.1-1.05 0.6 0.3 3.133 0.683 7.6 1.15 4.533 0.5 6.2 0.6 5 0.3-0.9-0.267-1.767-0.7-2.6-1.3l-1-0.85 2.7 0.2c2.1-0.034 3.85-0.434 5.25-1.2 1.633-0.933 2.35-2.25 2.15-3.95-0.2-1.667-1.183-2.65-2.95-2.95z" clip-rule="evenodd" fill="#7EB8DE" fill-rule="evenodd"/>
</symbol>
<symbol id="ax" viewBox="-0.01 -56.4 37.103 56.409">
		<path d="m28.3-8.4c2.367-3.434 4.1-7.717 5.2-12.85 0.667-3 1.45-7.583 2.35-13.75 1.767-9.467 1.65-16.6-0.35-21.4-0.533 1.1-0.967 2.5-1.3 4.2-0.3 1.934-0.55 3.383-0.75 4.35-2.1 9.5-6 17.867-11.7 25.1-1.867 2.333-3.95 4.367-6.25 6.1-1.8 1.367-4.267 2.917-7.4 4.65-5.6 3-8.3 5.867-8.1 8.6 0.133 2.066 1.317 3.117 3.55 3.15 1.633 0 3.45-0.5 5.45-1.5 1.5-0.767 3.417-1.967 5.75-3.6 2.486-1.763 3.994-3.122 4.525-4.075-0.97 2.298-1.629 4.14-1.975 5.525-0.667 2.733-0.033 4.033 1.9 3.9 0.433-0.067 0.85-0.183 1.25-0.35 2.233-1.033 4.85-3.717 7.85-8.05z" clip-rule="evenodd" fill="#7EB8D6" fill-rule="evenodd"/>
</symbol>
<symbol id="ay" viewBox="0 -50.85 52.244 50.838">
		<path d="m43.75-19.75c-2.667-1.767-6.467-3.767-11.4-6-10.567-4.7-18.117-9.2-22.65-13.5-3-2.867-6.233-6.733-9.7-11.6 0.633 1.467 1.3 3.25 2 5.35 1.433 4.233 2.417 8 2.95 11.3 0.8 5.233 1.783 10 2.95 14.3 2.067 7.5 4.417 12.467 7.05 14.9 1.3 1.233 2.7 1.783 4.2 1.65 1.467-0.233 1.233-1.933-0.7-5.1-1.934-3.233-2.667-4.917-2.2-5.05 1.1 0.533 3.267 2.95 6.5 7.25 2.7 3.633 5.367 5.35 8 5.15 0.933-0.3 0.667-1.3-0.8-3-1.967-1.967-3.233-3.316-3.8-4.05-1.767-2.367-3.083-4.15-3.95-5.35-1.5-2.067-2.7-3.917-3.6-5.55-2.033-3.733-3.267-6.017-3.7-6.85-0.633-1.333-0.683-1.75-0.15-1.25 2.033 1.9 5.667 5.95 10.9 12.15 4.433 5.3 8.25 9.167 11.45 11.6 1.7 1.333 3.383 2.283 5.05 2.85 2.133 0.733 3.983 0.716 5.55-0.05 2.033-1 3.4-2.533 4.1-4.6 0.667-2 0.583-4.066-0.25-6.2-1.1-2.867-3.7-5.65-7.8-8.35z" clip-rule="evenodd" fill="#2EB8DB" fill-rule="evenodd"/>
</symbol>
<symbol id="az" viewBox="0.049 -14.456 56.601 14.46">
		<path d="m56.65-9.6c-0.066-0.066-0.1-0.083-0.1-0.05-1.767-0.434-3.966-0.583-6.6-0.45-1.8 0.067-3.184 0.133-4.15 0.2-1.733 0.066-2.533 0.033-2.4-0.1 0.233-0.2 0.7-0.35 1.4-0.45 1.4-0.4 1.317-0.7-0.25-0.9-0.767-0.1-2.417-0.217-4.95-0.35-1.067-0.1-1.517-0.216-1.35-0.35 0.5-0.3 1.517-0.617 3.05-0.95 0.867-0.167 1.034-0.45 0.5-0.85-0.466-0.367-1.9-0.566-4.3-0.6-2.233-0.033-4.1 0.067-5.6 0.3-3.767 0.6-6.433 0.983-8 1.15-3.033 0.333-5.767 0.45-8.2 0.35-1.2-0.067-2.667-0.184-4.4-0.35-2.2-0.233-3.667-0.383-4.4-0.45-3.233-0.267-5.45-0.283-6.65-0.05-0.567 0.4 0.067 0.967 1.9 1.7 2.767 1 4.983 1.867 6.65 2.6-1.833-0.4-4.183-0.767-7.05-1.1-0.7 0.133 1.45 1.217 6.45 3.25 0.833 0.333 3.333 1.683 7.5 4.05 3 1.7 5.716 2.683 8.15 2.95 2.167 0.233 4.566-0.3 7.2-1.6 1.467-0.767 3.75-1.983 6.85-3.65 1.033-0.434 2-0.733 2.9-0.9 0.333-0.066 1.3-0.183 2.9-0.35 2.8-0.3 5.483-0.767 8.05-1.4 2.567-0.667 4.2-1.217 4.9-1.65z" clip-rule="evenodd" fill="#0D5069" fill-rule="evenodd"/>
</symbol>
<symbol id="bb" viewBox="0.017 -38.05 27.548 38.075">
		<path d="m26.5-14.65c-1.3-2.4-3.517-4.85-6.65-7.35-3.533-2.833-6.467-4.15-8.8-3.95 0.034 0.467 0.184 1.083 0.45 1.85 0.3 0.9 0.483 1.483 0.55 1.75-2.367-1.5-4.55-3.917-6.55-7.25-3.233-5.367-4.95-8.183-5.15-8.45-0.333 0.933-0.417 2.083-0.25 3.45 0.267 1.567 0.467 2.733 0.6 3.5 0.033 0.233 0.75 3.067 2.15 8.5 0.867 3.434 1.167 6.3 0.9 8.6-0.467 4.367-0.7 6.75-0.7 7.15 0.1 2.9 1.117 4.867 3.05 5.9 2.467 1.3 5.65 1.3 9.55 0 3.067-1 5.983-2.55 8.75-4.65 3.333-2.567 4.033-5.583 2.1-9.05z" clip-rule="evenodd" fill="#2EB8DB" fill-rule="evenodd"/>
</symbol>
		<radialGradient id="ai" cx="-72.809" cy="-109.94" r="54.202" gradientTransform="matrix(-.9961 .0888 -.1012 -.9774 .1991 1.9141)" gradientUnits="userSpaceOnUse">
		<stop stop-color="#2BB8A6" offset=".0118"/>
		<stop stop-color="#2DAEA3" offset=".2078"/>
		<stop stop-color="#32949B" offset=".5412"/>
		<stop stop-color="#3A6A8D" offset=".9608"/>
		<stop stop-color="#3B668C" offset="1"/>
	</radialGradient>
	<path d="m92.3 61.4c0.867 9.6-1.316 22.217-6.55 37.85-1.2 3.634-2.55 5.45-4.05 5.45-1.566 0-2.95-2.066-4.15-6.2-0.566-2.033-1.416-5.75-2.55-11.15-0.8-3.833-1.667-6.783-2.6-8.85-0.7-1.533-2.217-4.4-4.55-8.6-1.867-3.367-2.934-5.583-3.2-6.65-0.3-1.233 2.35-1.917 7.95-2.05 2.8-0.034 5.617 0.033 8.45 0.2h11.25z" clip-rule="evenodd" fill="url(#ai)" fill-rule="evenodd"/>
		<radialGradient id="aj" cx="-42.228" cy="-65.769" r="173.03" gradientTransform="matrix(-.9987 -.0514 .0303 -.8234 -.4266 11.579)" gradientUnits="userSpaceOnUse">
		<stop stop-color="#2BB8A6" offset=".0118"/>
		<stop stop-color="#2DAEA3" offset=".2078"/>
		<stop stop-color="#32949B" offset=".5412"/>
		<stop stop-color="#3A6A8D" offset=".9608"/>
		<stop stop-color="#3B668C" offset="1"/>
	</radialGradient>
	<path d="m37.1 37.2c2.533 2.367 4.917 4.833 7.15 7.4l12.6 21.6c-0.867 0.2-2.35 1.283-4.45 3.25-1.167 1.133-3 2.9-5.5 5.3-2.7 2.467-4.867 3.95-6.5 4.45-2.633 0.767-4.25-0.717-4.85-4.45-0.633-3.8-1.8-5.517-3.5-5.15-0.966 0.2-2.767 1.566-5.4 4.1-1 0.966-2.683 3.733-5.05 8.3-1.867 3.567-3.45 5.267-4.75 5.1-1.833-0.233-3.333-2.25-4.5-6.05-1.233-4.1-1.434-8.6-0.6-13.5 0.4-2.333 0.4-3.55 0-3.65-0.267-0.033-0.85 0.55-1.75 1.75-2.133 2.9-3.267 3.633-3.4 2.2-0.367-3.267 1.333-8.8 5.1-16.6 4.433-9.167 9.6-15.717 15.5-19.65 1.533-1.033 4.833 0.833 9.9 5.6z" clip-rule="evenodd" fill="url(#aj)" fill-rule="evenodd"/>
			<radialGradient id="ak" cx="120.7" cy="58.717" r="39.889" gradientTransform="matrix(.9717 -.2362 -.2777 -1.1426 30.174 124.15)" gradientUnits="userSpaceOnUse">
			<stop stop-color="#2BB8A6" offset=".0118"/>
			<stop stop-color="#2DAEA3" offset=".2078"/>
			<stop stop-color="#32949B" offset=".5412"/>
			<stop stop-color="#3A6A8D" offset=".9608"/>
			<stop stop-color="#3B668C" offset="1"/>
		</radialGradient>
		<path d="m125.35 23c0.934 1.967-0.35 2.533-3.85 1.7l-5.55-1.8 5 1.8c3.967 1.633 7.583 3.566 10.85 5.8 3.667 2.533 6.917 6.417 9.75 11.65 2.533 4.633 4.017 8.817 4.45 12.55 0.3 2.733-1.333 2.933-4.9 0.6-4.666-3.5-8.033-5.8-10.1-6.9-2.866-1.533-6.684-2.517-11.45-2.95-7.833-0.7-11.8-1.05-11.899-1.05-3.134-0.5-5.834-1.417-8.101-2.75-5.233-3.033-9.467-5.767-12.7-8.2-6.566-4.967-8.866-8.467-6.899-10.5 2.967-3.034 5.85-5.3 8.649-6.8 3.867-2.033 8.084-2.933 12.65-2.7 5.134 0.267 10.134 1.35 15 3.25 4.97 1.933 8 4.033 9.1 6.3z" clip-rule="evenodd" fill="url(#ak)" fill-rule="evenodd"/>
			<use transform="matrix(1 0 0 -1 78.5 15.55)" y="-23.05" width="56.6" height="23.056" enable-background="new" opacity=".5117" xlink:href="#ar"/>
		<radialGradient id="al" cx="-15.049" cy="-21.546" r="100.41" gradientTransform="matrix(-.5097 .8604 .7613 .4659 34.783 21.285)" gradientUnits="userSpaceOnUse">
		<stop stop-color="#38ADA6" offset="0"/>
		<stop stop-color="#3FA3A3" offset=".2549"/>
		<stop stop-color="#518A99" offset=".6824"/>
		<stop stop-color="#627291" offset="1"/>
	</radialGradient>
	<path d="m68.1 14c6.466 2.733 8.534 9.05 6.2 18.95-0.866 3.7-2.2 7.117-4 10.25-1.767 3-3.316 4.667-4.65 5-2.4 0.6-5.383-0.2-8.95-2.4-3.2-1.933-5.45-3.966-6.75-6.1-0.934-1.434-3.317-3.883-7.15-7.35-4.466-3.867-7.517-6.583-9.15-8.15-2.5-2.333-3.233-4.233-2.2-5.7 1-1.467 4.15-2.933 9.45-4.4 4.434-1.233 10.3-1.617 17.6-1.15 3.633 0.233 6.833 0.583 9.6 1.05z" clip-rule="evenodd" fill="url(#al)" fill-rule="evenodd"/>
			<radialGradient id="am" cx="96.091" cy="-77.627" r="87.067" gradientTransform="matrix(.581 .8139 .7872 -.5453 124.93 -86.535)" gradientUnits="userSpaceOnUse">
			<stop stop-color="#38ADA6" offset="0"/>
			<stop stop-color="#3FA3A3" offset=".2549"/>
			<stop stop-color="#518A99" offset=".6824"/>
			<stop stop-color="#627291" offset="1"/>
		</radialGradient>
		<path d="m81.75 45.4c-3.7-3.167-6.517-6.283-8.45-9.35-3.9-6.2-3.117-10.767 2.351-13.7 2.633-1.434 6.649-2.05 12.05-1.85 6.767 0.233 12.666 2.017 17.7 5.35 6.733 4.467 12.183 10.15 16.35 17.05 3.967 6.6 6.2 13.367 6.7 20.3 0.434 5.966-0.134 8.783-1.7 8.45-0.866-0.2-2.7-2.017-5.5-5.45-2.9-3.567-6.2-6.9-9.9-10-5-4.233-9.267-6.633-12.8-7.2-5.467-0.867-9.1-1.483-10.899-1.85-3.335-0.667-5.301-1.25-5.901-1.75z" clip-rule="evenodd" fill="url(#am)" fill-rule="evenodd"/>
			<use transform="matrix(1 0 0 -1 80.7 25.55)" y="-36.975" width="44.35" height="36.948" enable-background="new" opacity=".5117" xlink:href="#as"/>
		<radialGradient id="an" cx="96.306" cy="94.63" r="34.42" gradientTransform="matrix(.9954 .0955 .0846 -1.3633 -13.873 223.51)" gradientUnits="userSpaceOnUse">
		<stop stop-color="#52ADA1" offset="0"/>
		<stop stop-color="#4DA39A" offset=".2118"/>
		<stop stop-color="#408987" offset=".5647"/>
		<stop stop-color="#2C6169" offset="1"/>
	</radialGradient>
	<path d="m91.65 51.45c1.366 1.2 2.25 2.95 2.649 5.25 0.2 1.033 0.334 3.05 0.4 6.05 0.066 1.8 0.217 4.433 0.45 7.9 0.066 3-0.134 5.617-0.601 7.85-0.2 0.867-0.5 1.833-0.899 2.9-0.567 1.4-1.084 2.25-1.551 2.55-1.066 0.733-1.816-0.15-2.25-2.65-0.6-3.466-0.933-5.25-1-5.35-0.433 1.5-0.983 3.833-1.649 7-0.634 3.066-1.184 5.383-1.65 6.95-1.399 4.734-2.833 5.8-4.3 3.2-0.767-1.333-1.316-3.149-1.65-5.45-0.133-0.8-0.333-2.7-0.6-5.7-0.5-5.667-1.733-10.017-3.7-13.05-2.433-3.733-3.9-6.75-4.4-9.05-0.9-3.833 0.417-6.567 3.95-8.2 2.667-1.233 5.5-1.967 8.5-2.2 3.701-0.3 6.467 0.367 8.301 2z" clip-rule="evenodd" fill="url(#an)" fill-rule="evenodd"/>
			<radialGradient id="ao" cx="-63.564" cy="-84.515" r="50.912" gradientTransform="matrix(-.9811 -.1935 .1512 -.8294 -2.3808 13.058)" gradientUnits="userSpaceOnUse">
			<stop stop-color="#38ADA6" offset="0"/>
			<stop stop-color="#3FA3A3" offset=".2549"/>
			<stop stop-color="#518A99" offset=".6824"/>
			<stop stop-color="#627291" offset="1"/>
		</radialGradient>
		<path d="m39.65 68.15c0.867-4.667 1.6-7.816 2.2-9.45 1.4-3.9 3.45-6.4 6.15-7.5 2.033-0.8 4.883-0.767 8.55 0.1 3.534 0.867 6.934 2.267 10.2 4.2 3.433 2.067 5.833 4.267 7.2 6.6 1.533 2.633 1.434 5.033-0.3 7.2-1.434 1.767-4.15 3.9-8.15 6.4-4.367 2.733-6.983 4.517-7.85 5.35-2.033 2.034-4.583 4.883-7.65 8.55-3.6 4.3-6.1 7.2-7.5 8.7-4.7 5.033-6.683 3.283-5.95-5.25 0.633-8.833 1.667-17.133 3.1-24.9z" clip-rule="evenodd" fill="url(#ao)" fill-rule="evenodd"/>
			<use transform="matrix(1 0 0 -1 41.45 40.6)" y="-49.9" width="32.613" height="49.868" enable-background="new" opacity=".5117" xlink:href="#at"/>
		<radialGradient id="ap" cx="-66.403" cy="-90.918" r="34.857" gradientTransform="matrix(-.9869 -.1614 .1696 -.856 -2.2609 11.409)" gradientUnits="userSpaceOnUse">
		<stop stop-color="#52ADA1" offset="0"/>
		<stop stop-color="#4DA39A" offset=".2118"/>
		<stop stop-color="#408987" offset=".5647"/>
		<stop stop-color="#2C6169" offset="1"/>
	</radialGradient>
	<path d="m71.75 45.8c3.167 1.034 6 2.5 8.5 4.4 3.333 2.533 4.033 5.533 2.1 9-1.033 1.867-2.85 4.033-5.449 6.5-3 2.833-4.967 4.883-5.9 6.15-0.4 0.566-1.067 1.5-2 2.8-0.933 0.867-1.917 0.817-2.95-0.15-1.133 1.2-2.733 3.133-4.8 5.8-1.967 2.534-3.617 3.85-4.95 3.95-1.6 0.167-2.65-1.417-3.15-4.75-1-7.067-0.783-13.5 0.65-19.3 0.767-3.067 1.784-5.833 3.05-8.3 1.667-3.4 3.517-5.55 5.55-6.45 2.366-1.067 5.482-0.95 9.349 0.35z" clip-rule="evenodd" fill="url(#ap)" fill-rule="evenodd"/>
		<use transform="matrix(1 0 0 -1 57.6 36.7)" x="0.017" y="-38.05" width="27.548" height="38.075" enable-background="new" opacity=".5117" xlink:href="#bb"/>
		<use transform="matrix(1 0 0 -1 30.1 167.65)" x="0.049" y="-14.456" width="56.601" height="14.46" enable-background="new" opacity=".4688" xlink:href="#az"/>
		<linearGradient id="aq" x1="-27.754" x2="130.21" y1="-110.72" y2="-110.72" gradientTransform="matrix(-.5172 .8559 -.8559 -.5172 -.00058281 -.00018692)" gradientUnits="userSpaceOnUse">
		<stop stop-color="#242224" offset="0"/>
		<stop stop-color="#27252E" offset=".2118"/>
		<stop stop-color="#302E49" offset=".5765"/>
		<stop stop-color="#32304E" offset=".6353"/>
		<stop stop-color="#617D84" offset="1"/>
	</linearGradient>
	<path d="m40.9 49.3h2.75l0.65 4.3c0.767 3.467 2.067 6.733 3.9 9.8 1.5 2.467 3.983 6.383 7.45 11.75 2.667 4.833 3.85 9.15 3.55 12.95l-0.15 1.85c2.7-4.434 4.517-8.133 5.45-11.1 1-3.133 1.65-5.717 1.95-7.75 0.3-2.167 0.35-4.817 0.15-7.95-0.167-2.5-0.7-5.316-1.6-8.45-0.033-0.1-0.483-1.2-1.35-3.3-0.767-1.9-1.117-2.883-1.05-2.95 0.933-0.767 1.717-1 2.35-0.7 0.433 0.2 1.033 0.9 1.8 2.1 1.7 2.633 2.967 5.9 3.8 9.8 0.767 3.5 1.117 7.1 1.05 10.8 3.733-4.633 6.1-9.717 7.1-15.25 0.3-1.733 0.45-3.417 0.45-5.05l-0.101-1.9 1.851-0.35 0.399 2.9c0.101 2.7-0.316 5.95-1.25 9.75-0.767 3.167-2.233 6.567-4.399 10.2-1.233 2.067-2.9 4.517-5 7.35-0.5 2.233-1.283 4.983-2.35 8.25-0.267 0.833-2.3 6.167-6.1 16-2.5 6.5-3.967 11.983-4.4 16.45-0.466 5.101-0.017 10.384 1.35 15.851 0.233-2.634 0.917-5.301 2.05-8 0.333-0.767 1.2-2.384 2.6-4.851 1.034-1.899 1.7-3.483 2-4.75 0.133-0.8 0.217-1.283 0.25-1.45 0.067-0.3 0.15-0.199 0.25 0.301v2.149c-0.233 1.934-0.85 4.134-1.85 6.601-1.133 2.733-1.833 6.033-2.1 9.899-0.267 4.367 0.066 8.95 1 13.75l1.1 3.45c0.933 2.934 1.75 6.017 2.45 9.25 0.233 1.134 0.583 2.816 1.05 5.05 0 0.066 0.117 0.834 0.35 2.3 0.133 0.934 0.317 1.667 0.55 2.2 0.6 1.467 1.8 2.483 3.6 3.05 1.033 0.334 2.649 0.7 4.85 1.101 0.467 0.133 1.184 0.316 2.15 0.55 0.866 0.267 1.55 0.566 2.05 0.9v0.149c-2.8-0.033-4.8-0.083-6-0.149-1.5-0.067-2.667-0.101-3.5-0.101-1.467-0.033-2.283 0.066-2.45 0.3-0.133 0.134 0.217 0.301 1.05 0.5 1.3 0.334 0.75 0.601-1.65 0.801-2.3 0.199-4.1 0.216-5.4 0.05-1.767-0.167-2.716-0.367-2.85-0.601 0.533 0.834 1.95 1.483 4.25 1.95 1.833 0.367 2.583 0.684 2.25 0.95-2.034 0.2-4.483 0.066-7.35-0.4-3.033-0.666-5.3-1.166-6.8-1.5-2.667-0.533-4.966-0.683-6.9-0.449-1.066 0.133-2.483 0.416-4.25 0.85-1.8 0.434-3.117 0.717-3.95 0.85-1.8 0.301-3.25 0.417-4.35 0.351-0.4-0.3 0.783-0.95 3.55-1.95 3.633-1.267 6.067-2.316 7.3-3.15-0.567-0.033-3.45 0.534-8.65 1.7-0.367-0.1 0.1-0.467 1.4-1.1 0.966-0.467 2.05-0.934 3.25-1.4 1-0.399 1.983-0.934 2.95-1.6 1.167-0.8 1.983-1.584 2.45-2.351 1.267-2.033 1.867-4.883 1.8-8.55-0.033-0.866-0.267-3.333-0.7-7.399-0.167-1.767-0.567-4.4-1.2-7.9-0.8-4.634-1.25-7.316-1.35-8.05-0.967-6.3-0.95-12.316 0.05-18.05 0.6-7.4 2.233-14.367 4.9-20.9 2.2-5.366 3.417-9.483 3.65-12.35 0.267-3.7-0.683-7.733-2.85-12.1-2.933-5.966-5.066-10.65-6.4-14.05-1.933-4.933-2.883-8.667-2.85-11.2z" clip-rule="evenodd" fill="url(#aq)" fill-rule="evenodd"/>
		<radialGradient id="ba" cx="59.623" cy="-11.038" r="31.466" gradientTransform="matrix(.9689 .2475 .2288 -.8461 5.4069 -19.995)" gradientUnits="userSpaceOnUse">
		<stop stop-color="#38ADA6" offset="0"/>
		<stop stop-color="#38A3A2" offset=".2235"/>
		<stop stop-color="#3A8999" offset=".5961"/>
		<stop stop-color="#3B668C" offset="1"/>
	</radialGradient>
	<path d="m72.75 8.1c4.2 4.667 6.366 9.65 6.5 14.95 0.066 2.633-0.283 4.8-1.05 6.5-0.467 0.867-2.816 0.65-7.05-0.65-4.4-1.367-7.55-3.05-9.45-5.05-2.067-2.1-3.65-4.85-4.75-8.25-1.2-3.633-2.034-5.75-2.5-6.35-1.633-2.167-3.467-3.567-5.5-4.2-1.367-0.433-2-0.9-1.9-1.4 0.233-1.1 1.233-2 3-2.7 1.8-0.733 3.934-1.034 6.4-0.9 6.3 0.333 11.733 3.017 16.3 8.05z" clip-rule="evenodd" fill="url(#ba)" fill-rule="evenodd"/>
		<radialGradient id="ab" cx="-109.27" cy="-1.9063" r="38.071" gradientTransform="matrix(-.9965 -.0837 .0571 -.8258 -.0227 .3287)" gradientUnits="userSpaceOnUse">
		<stop stop-color="#5BB6AD" offset="0"/>
		<stop stop-color="#53ACA9" offset=".2314"/>
		<stop stop-color="#3F929E" offset=".6157"/>
		<stop stop-color="#267291" offset="1"/>
	</radialGradient>
	<path d="m90.45 31.15c-2.834 1.333-6.9 1.9-12.2 1.7-5.1-0.2-7.733-0.833-7.9-1.9-0.2-2.034 0.217-4.383 1.25-7.05 2.133-5.333 6.35-9.633 12.65-12.9 6.866-3.533 13.783-4.333 20.75-2.4 2.767 0.767 5 1.85 6.7 3.25 1.633 1.333 2.366 2.617 2.2 3.85-0.067 0.5-0.317 0.783-0.75 0.85l-1.85-0.05c-2.434-0.1-4.95 0.65-7.55 2.25-0.733 0.433-2.417 2.317-5.05 5.65-2.467 3.067-5.217 5.317-8.25 6.75z" clip-rule="evenodd" fill="url(#ab)" fill-rule="evenodd"/>
		<radialGradient id="ac" cx="71.101" cy="115.72" r="116.43" gradientTransform="matrix(.9992 .04 .0392 -.7081 -10.929 197.5)" gradientUnits="userSpaceOnUse">
		<stop stop-color="#2BB8A6" offset=".0118"/>
		<stop stop-color="#2DAEA3" offset=".2078"/>
		<stop stop-color="#32949B" offset=".5412"/>
		<stop stop-color="#3A6A8D" offset=".9608"/>
		<stop stop-color="#3B668C" offset="1"/>
	</radialGradient>
	<path d="m65.4 105.3c-1-0.566-1.6-0.916-1.8-1.05-0.833-0.6-1.233-1.15-1.2-1.65 0.1-1.399 1.533-2.166 4.3-2.3 2.167-0.1 3.966 0.084 5.4 0.55 4.766 1.534 8.766 4.284 12 8.25 1.601 1.9 2.767 3.884 3.5 5.95 0.767 2.167 0.95 4.134 0.551 5.9-0.134 0.633-0.717 0.233-1.75-1.2-0.834-1.233-1.167-0.967-1 0.8 0.199 2.334-0.117 4.417-0.95 6.25-0.8 1.7-1.7 2.566-2.7 2.601-0.7 0.033-1.483-0.834-2.35-2.601-1.067-2.2-1.851-3.55-2.351-4.05-1.3-1.3-2.2-2.017-2.7-2.15-0.933-0.267-1.649 0.467-2.149 2.2-0.5 1.7-1.434 2.316-2.8 1.851-0.867-0.301-1.967-1.084-3.3-2.351-1.4-1.333-2.233-2.1-2.5-2.3-0.934-0.8-1.817-1.366-2.65-1.7-0.9-0.366-1.85-0.55-2.85-0.55-2.2-0.066-3.75-0.45-4.65-1.15-1.133-0.899-1.083-2.283 0.15-4.149 1.367-2.066 3.066-3.717 5.1-4.95 2.066-1.3 4.299-2.03 6.699-2.2z" clip-rule="evenodd" fill="url(#ac)" fill-rule="evenodd"/>
		<use transform="matrix(1 0 0 -1 61.45 102.45)" x="0.004" y="-18.439" width="22.234" height="18.428" enable-background="new" opacity=".5117" xlink:href="#av"/>
		<use transform="matrix(1 0 0 -1 74 9.75)" x="0.022" y="-22.794" width="36.578" height="22.795" enable-background="new" opacity=".5117" xlink:href="#au"/>
			<radialGradient id="ad" cx="-30.278" cy="-2.7603" r="44.193" gradientTransform="matrix(-.7405 -.6721 .5671 -.831 -.0058 .008)" gradientUnits="userSpaceOnUse">
			<stop stop-color="#38ADA6" offset="0"/>
			<stop stop-color="#38A3A2" offset=".2235"/>
			<stop stop-color="#3A8999" offset=".5961"/>
			<stop stop-color="#3B668C" offset="1"/>
		</radialGradient>
		<path d="m64.5 38.25c-5.533 3.4-8.383 5.15-8.55 5.25-3 1.567-6.167 2.517-9.5 2.85-2.4 0.233-5.55 1.25-9.45 3.05-4.233 1.9-7.35 3.033-9.35 3.4-1.533 0.3-2.733 0.434-3.6 0.4-1.633-0.034-2.583-0.583-2.85-1.65-0.2-0.833 0.4-2.05 1.8-3.65 1.733-2 2.683-3.183 2.85-3.55-6.1 1.867-11.3 3.283-15.6 4.25-8.233 1.833-11.517 0.65-9.85-3.55 1.533-3.833 4.667-7.417 9.4-10.75 2.7-1.767 4.717-3.1 6.05-4 2.4-1.566 4.3-2.983 5.7-4.25-1.267 0.267-2.2 0.467-2.8 0.6-1.133 0.2-2.067 0.167-2.8-0.1-1.667-0.8 0.267-3.017 5.8-6.65 4.867-3.167 9-5.4 12.4-6.7 5.233-2 10.684-2.8 16.35-2.4 6.3 0.434 10.35 2.383 12.15 5.85 0.867 1.733 2.85 3.7 5.95 5.9 2.4 1.733 3.733 4.133 4 7.2 0.066 0.733-0.967 2.167-3.1 4.3-1.967 1.967-3.633 3.367-5 4.2z" clip-rule="evenodd" fill="url(#ad)" fill-rule="evenodd"/>
			<use transform="matrix(1 0 0 -1 5.6001 13.05)" x="0.05" y="-30.3" width="49.332" height="30.314" enable-background="new" opacity=".5117" xlink:href="#aw"/>
		<radialGradient id="ae" cx="-79.004" cy="32.045" r="45.121" gradientTransform="matrix(-.9804 -.197 .1756 -.9472 .2149 -1.1597)" gradientUnits="userSpaceOnUse">
		<stop stop-color="#38ADA6" offset="0"/>
		<stop stop-color="#38A3A2" offset=".2235"/>
		<stop stop-color="#3A8999" offset=".5961"/>
		<stop stop-color="#3B668C" offset="1"/>
	</radialGradient>
	<path d="m86.55 18.35c3-0.267 4.65 1.2 4.95 4.4-0.1 0.833-1.233 1.367-3.4 1.6-2.366 0.233-3.783 0.816-4.25 1.75 0.5 0.333 2.334 0.3 5.5-0.1 2.834 0.133 4.017 1.667 3.551 4.6-0.134 0.767-2.351 1.517-6.65 2.25-2.333 0.4-4.85 0.733-7.55 1-0.601 0.066-1.7 0.233-3.3 0.5-1.4 0.233-2.45 0.367-3.15 0.4-1.333 0-2.283-0.317-2.85-0.95-0.733-0.733-1-2.017-0.8-3.85 0.033-0.333 0.35-1.383 0.95-3.15 0.5-1.4 0.65-2.45 0.45-3.15-0.2-0.733-1.067-1.767-2.6-3.1-1.3-1.133-1.9-2.367-1.8-3.7 0.1-1.434 0.85-2.517 2.25-3.25 1.433-0.8 2.617-0.65 3.55 0.45 0.2 0.233 0.517 0.867 0.95 1.9 0.467 0.867 0.95 1.216 1.45 1.05 0.867-0.3 0.867-2.367 0-6.2-0.366-1.3-0.616-2.3-0.75-3-0.2-1.267-0.05-2.267 0.45-3 0.5-0.7 1.134-1.083 1.9-1.15s1.499 0.15 2.199 0.65c2.267 1.667 3.284 4.3 3.051 7.9-0.134 2-0.45 4.966-0.95 8.9 2.266-1.667 4.549-2.583 6.849-2.75z" clip-rule="evenodd" fill="url(#ae)" fill-rule="evenodd"/>
		<radialGradient id="af" cx="38.55" cy="-14.74" r="36.169" gradientTransform="matrix(.4821 .8761 .8412 -.4476 25.414 -13.521)" gradientUnits="userSpaceOnUse">
		<stop stop-color="#38ADA6" offset="0"/>
		<stop stop-color="#38A3A2" offset=".2235"/>
		<stop stop-color="#3A8999" offset=".5961"/>
		<stop stop-color="#3B668C" offset="1"/>
	</radialGradient>
	<path d="m45 19.75c2.367-0.5 4.567-0.8 6.6-0.9 3.667-0.167 6.883 0.35 9.65 1.55 6.9 2.967 10.817 6.317 11.75 10.05 0.566 2.233-0.283 4.167-2.55 5.8-1.267 0.9-3.333 1.85-6.2 2.85-2.067 0.767-4.4 0.867-7 0.3-2.333-0.533-4.567-1.533-6.7-3-0.733-0.467-1.566-1.217-2.5-2.25-1.2-1.333-1.966-2.15-2.3-2.45-1.267-1.133-2.933-1.817-5-2.05-1.233-0.1-3.117-0.033-5.65 0.2-2.434 0.233-3.783 0.35-4.05 0.35-1.566-0.1-2.066-0.7-1.5-1.8 1.067-2.133 3.333-4.033 6.8-5.7 2.633-1.3 5.517-2.283 8.65-2.95z" clip-rule="evenodd" fill="url(#af)" fill-rule="evenodd"/>
			<radialGradient id="ag" cx="-128.67" cy="-18.814" r="78.807" gradientTransform="matrix(-.981 -.1938 .1596 -.873 -.3807 2.084)" gradientUnits="userSpaceOnUse">
			<stop stop-color="#38ADA6" offset="0"/>
			<stop stop-color="#38A3A2" offset=".2235"/>
			<stop stop-color="#3A8999" offset=".5961"/>
			<stop stop-color="#3B668C" offset="1"/>
		</radialGradient>
		<path d="m91.85 30.45c6.2 1.966 11.317 6.433 15.351 13.4 7.467 12.767 9.566 28.05 6.3 45.85-1.167 6.467-2.083 10.583-2.75 12.35-1.033 2.867-2.267 3.45-3.7 1.75-0.767-0.866-2-4.35-3.7-10.45-1.966-6.866-4.616-13.066-7.949-18.6-2.534-4.267-5.65-8.45-9.351-12.55-3.8-3.967-6.316-6.6-7.55-7.9-3.634-3.333-6.4-5.933-8.3-7.8-3.467-3.367-4.983-5.717-4.55-7.05 0.533-1.667 1.883-3.317 4.05-4.95 2.267-1.7 5.066-3.067 8.399-4.1 4.601-1.4 9.184-1.383 13.751 0.05z" clip-rule="evenodd" fill="url(#ag)" fill-rule="evenodd"/>
			<use transform="matrix(1 0 0 -1 74.8 33.7)" x="-0.01" y="-56.4" width="37.103" height="56.409" enable-background="new" opacity=".5117" xlink:href="#ax"/>
				<radialGradient id="ah" cx="29.02" cy="6.6313" r="112.45" gradientTransform="matrix(.9835 .1807 .1856 -.9345 -2.5232 12.702)" gradientUnits="userSpaceOnUse">
				<stop stop-color="#38ADA6" offset="0"/>
				<stop stop-color="#38A3A2" offset=".2235"/>
				<stop stop-color="#3A8999" offset=".5961"/>
				<stop stop-color="#3B668C" offset="1"/>
			</radialGradient>
			<path d="m62.95 28.1c-0.067 0.367 1.517 0.05 4.75-0.95 3.966-0.667 7.5 0.017 10.6 2.05 3.2 2.1 4.75 5.333 4.65 9.7-0.101 4.633-2.2 8.583-6.3 11.85-3.534 2.8-6.267 4.817-8.2 6.05-1.633 1.067-4.917 2.934-9.85 5.6-3.9 2.133-9.2 6.267-15.9 12.4-6.967 6.4-11.517 11.45-13.65 15.15-2.4 4.2-4.583 5.583-6.55 4.149-1.933-1.399-2.633-4.45-2.1-9.149 0.434-4.067 1.633-9.667 3.6-16.8 1.4-5 3.417-11.6 6.05-19.8 2.333-7.233 5.034-13.067 8.1-17.5 3.867-5.633 8.05-8.65 12.55-9.05 3.2-0.267 6.083 0.167 8.65 1.3 2.833 1.233 4.033 2.9 3.6 5z" clip-rule="evenodd" fill="url(#ah)" fill-rule="evenodd"/>
			<use transform="matrix(1 0 0 -1 24.15 28.8)" y="-50.85" width="52.244" height="50.838" enable-background="new" opacity=".5117" xlink:href="#ay"/>
</svg>
