<svg id="visual" viewBox="0 0 900 675" width="900" height="675" xmlns="http://www.w3.org/2000/svg" xmlns:xlink="http://www.w3.org/1999/xlink" version="1.1"><rect x="0" y="0" width="900" height="675" fill="#001220"></rect><defs><linearGradient id="grad1_0" x1="25%" y1="100%" x2="100%" y2="0%"><stop offset="23.333333333333336%" stop-color="#001220" stop-opacity="1"></stop><stop offset="76.66666666666666%" stop-color="#001220" stop-opacity="1"></stop></linearGradient></defs><defs><linearGradient id="grad2_0" x1="0%" y1="100%" x2="75%" y2="0%"><stop offset="23.333333333333336%" stop-color="#001220" stop-opacity="1"></stop><stop offset="76.66666666666666%" stop-color="#001220" stop-opacity="1"></stop></linearGradient></defs><g transform="translate(900, 675)"><path d="M-281.2 0C-254.4 -20.7 -227.6 -41.5 -224.4 -72.9C-221.3 -104.4 -241.8 -146.6 -227.5 -165.3C-213.3 -184.1 -164.2 -179.4 -133.4 -183.6C-102.7 -187.9 -90.3 -201 -71.1 -218.7C-51.9 -236.5 -25.9 -258.9 0 -281.2L0 0Z" fill="#4889de"></path></g><g transform="translate(0, 0)"><path d="M281.3 0C271.4 30 261.5 59.9 239.7 77.9C217.8 95.8 183.9 101.8 170.7 124C157.5 146.3 165 184.9 154.6 212.8C144.1 240.7 115.7 257.9 86.9 267.5C58.1 277.1 29.1 279.2 0 281.3L0 0Z" fill="#4889de"></path></g></svg>