<svg id="visual" viewBox="0 0 960 540" width="960" height="540" xmlns="http://www.w3.org/2000/svg" xmlns:xlink="http://www.w3.org/1999/xlink" version="1.1"><rect x="0" y="0" width="960" height="540" fill="#001220"></rect><defs><linearGradient id="grad1_0" x1="43.8%" y1="100%" x2="100%" y2="0%"><stop offset="14.444444444444446%" stop-color="#001220" stop-opacity="1"></stop><stop offset="85.55555555555554%" stop-color="#001220" stop-opacity="1"></stop></linearGradient></defs><defs><linearGradient id="grad2_0" x1="0%" y1="100%" x2="56.3%" y2="0%"><stop offset="14.444444444444446%" stop-color="#001220" stop-opacity="1"></stop><stop offset="85.55555555555554%" stop-color="#001220" stop-opacity="1"></stop></linearGradient></defs><g transform="translate(960, 540)"><path d="M-270 0C-268.1 -28.5 -266.1 -57 -256.8 -83.4C-247.4 -109.8 -230.7 -134.1 -208.7 -151.6C-186.7 -169.1 -159.5 -179.8 -135.2 -186.1C-110.9 -192.3 -89.4 -194.1 -67.4 -207.3C-45.3 -220.6 -22.7 -245.3 0 -270L0 0Z" fill="#4889de"></path></g><g transform="translate(0, 0)"><path d="M270 0C250.1 23.4 230.2 46.7 220.6 71.7C211.1 96.7 211.9 123.3 203.1 147.5C194.2 171.8 175.7 193.8 154.6 212.8C133.4 231.8 109.6 247.7 83.4 256.8C57.2 265.8 28.6 267.9 0 270L0 0Z" fill="#4889de"></path></g></svg>