<svg id="visual" viewBox="0 0 675 900" width="675" height="900" xmlns="http://www.w3.org/2000/svg" xmlns:xlink="http://www.w3.org/1999/xlink" version="1.1"><rect x="0" y="0" width="675" height="900" fill="#001220"></rect><defs><linearGradient id="grad1_0" x1="0%" y1="100%" x2="100%" y2="0%"><stop offset="30%" stop-color="#001220" stop-opacity="1"></stop><stop offset="70%" stop-color="#001220" stop-opacity="1"></stop></linearGradient></defs><defs><linearGradient id="grad2_0" x1="0%" y1="100%" x2="100%" y2="0%"><stop offset="30%" stop-color="#001220" stop-opacity="1"></stop><stop offset="70%" stop-color="#001220" stop-opacity="1"></stop></linearGradient></defs><g transform="translate(675, 900)"><path d="M-281.2 0C-266.9 -26.1 -252.5 -52.3 -238.7 -77.6C-225 -102.8 -211.8 -127.3 -190.9 -138.7C-170 -150.1 -141.3 -148.6 -125.2 -172.3C-109.1 -196.1 -105.7 -245.1 -86.9 -267.5C-68.2 -289.9 -34.1 -285.6 0 -281.2L0 0Z" fill="#4889de"></path></g><g transform="translate(0, 0)"><path d="M281.3 0C273.4 28.5 265.6 56.9 253.9 82.5C242.3 108.1 226.8 130.7 211.2 153.4C195.5 176.1 179.6 198.9 159.3 219.2C139 239.6 114.2 257.6 86.9 267.5C59.6 277.4 29.8 279.3 0 281.3L0 0Z" fill="#4889de"></path></g></svg>