<svg id="visual" viewBox="0 0 960 540" width="960" height="540" xmlns="http://www.w3.org/2000/svg" xmlns:xlink="http://www.w3.org/1999/xlink" version="1.1"><rect x="0" y="0" width="960" height="540" fill="#001220"></rect><path d="M0 264L12.3 263.5C24.7 263 49.3 262 74 276.2C98.7 290.3 123.3 319.7 148 321.8C172.7 324 197.3 299 221.8 291.8C246.3 284.7 270.7 295.3 295.2 303C319.7 310.7 344.3 315.3 369 309C393.7 302.7 418.3 285.3 443 276.7C467.7 268 492.3 268 517 271.2C541.7 274.3 566.3 280.7 591 285.7C615.7 290.7 640.3 294.3 664.8 291.5C689.3 288.7 713.7 279.3 738.2 282.5C762.7 285.7 787.3 301.3 812 307.7C836.7 314 861.3 311 886 301.3C910.7 291.7 935.3 275.3 947.7 267.2L960 259L960 541L947.7 541C935.3 541 910.7 541 886 541C861.3 541 836.7 541 812 541C787.3 541 762.7 541 738.2 541C713.7 541 689.3 541 664.8 541C640.3 541 615.7 541 591 541C566.3 541 541.7 541 517 541C492.3 541 467.7 541 443 541C418.3 541 393.7 541 369 541C344.3 541 319.7 541 295.2 541C270.7 541 246.3 541 221.8 541C197.3 541 172.7 541 148 541C123.3 541 98.7 541 74 541C49.3 541 24.7 541 12.3 541L0 541Z" fill="#021220"></path><path d="M0 345L12.3 352.3C24.7 359.7 49.3 374.3 74 377C98.7 379.7 123.3 370.3 148 364.8C172.7 359.3 197.3 357.7 221.8 363C246.3 368.3 270.7 380.7 295.2 375.7C319.7 370.7 344.3 348.3 369 347.3C393.7 346.3 418.3 366.7 443 375.7C467.7 384.7 492.3 382.3 517 375.7C541.7 369 566.3 358 591 347.8C615.7 337.7 640.3 328.3 664.8 336.8C689.3 345.3 713.7 371.7 738.2 375.7C762.7 379.7 787.3 361.3 812 350.3C836.7 339.3 861.3 335.7 886 333.3C910.7 331 935.3 330 947.7 329.5L960 329L960 541L947.7 541C935.3 541 910.7 541 886 541C861.3 541 836.7 541 812 541C787.3 541 762.7 541 738.2 541C713.7 541 689.3 541 664.8 541C640.3 541 615.7 541 591 541C566.3 541 541.7 541 517 541C492.3 541 467.7 541 443 541C418.3 541 393.7 541 369 541C344.3 541 319.7 541 295.2 541C270.7 541 246.3 541 221.8 541C197.3 541 172.7 541 148 541C123.3 541 98.7 541 74 541C49.3 541 24.7 541 12.3 541L0 541Z" fill="#09243b"></path><path d="M0 405L12.3 405C24.7 405 49.3 405 74 407.7C98.7 410.3 123.3 415.7 148 410.5C172.7 405.3 197.3 389.7 221.8 381.3C246.3 373 270.7 372 295.2 378.3C319.7 384.7 344.3 398.3 369 395.3C393.7 392.3 418.3 372.7 443 374.5C467.7 376.3 492.3 399.7 517 398.3C541.7 397 566.3 371 591 361.5C615.7 352 640.3 359 664.8 366.3C689.3 373.7 713.7 381.3 738.2 376.5C762.7 371.7 787.3 354.3 812 354C836.7 353.7 861.3 370.3 886 380.2C910.7 390 935.3 393 947.7 394.5L960 396L960 541L947.7 541C935.3 541 910.7 541 886 541C861.3 541 836.7 541 812 541C787.3 541 762.7 541 738.2 541C713.7 541 689.3 541 664.8 541C640.3 541 615.7 541 591 541C566.3 541 541.7 541 517 541C492.3 541 467.7 541 443 541C418.3 541 393.7 541 369 541C344.3 541 319.7 541 295.2 541C270.7 541 246.3 541 221.8 541C197.3 541 172.7 541 148 541C123.3 541 98.7 541 74 541C49.3 541 24.7 541 12.3 541L0 541Z" fill="#103759"></path><path d="M0 396L12.3 392.3C24.7 388.7 49.3 381.3 74 385.5C98.7 389.7 123.3 405.3 148 407C172.7 408.7 197.3 396.3 221.8 391.8C246.3 387.3 270.7 390.7 295.2 393.3C319.7 396 344.3 398 369 402.8C393.7 407.7 418.3 415.3 443 416.7C467.7 418 492.3 413 517 410.2C541.7 407.3 566.3 406.7 591 406.2C615.7 405.7 640.3 405.3 664.8 401.8C689.3 398.3 713.7 391.7 738.2 385.8C762.7 380 787.3 375 812 375.3C836.7 375.7 861.3 381.3 886 382.7C910.7 384 935.3 381 947.7 379.5L960 378L960 541L947.7 541C935.3 541 910.7 541 886 541C861.3 541 836.7 541 812 541C787.3 541 762.7 541 738.2 541C713.7 541 689.3 541 664.8 541C640.3 541 615.7 541 591 541C566.3 541 541.7 541 517 541C492.3 541 467.7 541 443 541C418.3 541 393.7 541 369 541C344.3 541 319.7 541 295.2 541C270.7 541 246.3 541 221.8 541C197.3 541 172.7 541 148 541C123.3 541 98.7 541 74 541C49.3 541 24.7 541 12.3 541L0 541Z" fill="#1a4b78"></path><path d="M0 443L12.3 446.8C24.7 450.7 49.3 458.3 74 457C98.7 455.7 123.3 445.3 148 440.5C172.7 435.7 197.3 436.3 221.8 438.2C246.3 440 270.7 443 295.2 442C319.7 441 344.3 436 369 429C393.7 422 418.3 413 443 419.2C467.7 425.3 492.3 446.7 517 451.2C541.7 455.7 566.3 443.3 591 441.3C615.7 439.3 640.3 447.7 664.8 446.2C689.3 444.7 713.7 433.3 738.2 430C762.7 426.7 787.3 431.3 812 428.8C836.7 426.3 861.3 416.7 886 422.5C910.7 428.3 935.3 449.7 947.7 460.3L960 471L960 541L947.7 541C935.3 541 910.7 541 886 541C861.3 541 836.7 541 812 541C787.3 541 762.7 541 738.2 541C713.7 541 689.3 541 664.8 541C640.3 541 615.7 541 591 541C566.3 541 541.7 541 517 541C492.3 541 467.7 541 443 541C418.3 541 393.7 541 369 541C344.3 541 319.7 541 295.2 541C270.7 541 246.3 541 221.8 541C197.3 541 172.7 541 148 541C123.3 541 98.7 541 74 541C49.3 541 24.7 541 12.3 541L0 541Z" fill="#265f99"></path><path d="M0 447L12.3 453.5C24.7 460 49.3 473 74 479.3C98.7 485.7 123.3 485.3 148 483.7C172.7 482 197.3 479 221.8 472.2C246.3 465.3 270.7 454.7 295.2 458.3C319.7 462 344.3 480 369 485.5C393.7 491 418.3 484 443 482.7C467.7 481.3 492.3 485.7 517 486.2C541.7 486.7 566.3 483.3 591 477.8C615.7 472.3 640.3 464.7 664.8 467.2C689.3 469.7 713.7 482.3 738.2 486.8C762.7 491.3 787.3 487.7 812 482.8C836.7 478 861.3 472 886 467C910.7 462 935.3 458 947.7 456L960 454L960 541L947.7 541C935.3 541 910.7 541 886 541C861.3 541 836.7 541 812 541C787.3 541 762.7 541 738.2 541C713.7 541 689.3 541 664.8 541C640.3 541 615.7 541 591 541C566.3 541 541.7 541 517 541C492.3 541 467.7 541 443 541C418.3 541 393.7 541 369 541C344.3 541 319.7 541 295.2 541C270.7 541 246.3 541 221.8 541C197.3 541 172.7 541 148 541C123.3 541 98.7 541 74 541C49.3 541 24.7 541 12.3 541L0 541Z" fill="#3674bb"></path><path d="M0 478L12.3 482.8C24.7 487.7 49.3 497.3 74 500.3C98.7 503.3 123.3 499.7 148 498.5C172.7 497.3 197.3 498.7 221.8 502.2C246.3 505.7 270.7 511.3 295.2 507.5C319.7 503.7 344.3 490.3 369 485C393.7 479.7 418.3 482.3 443 484.3C467.7 486.3 492.3 487.7 517 492.7C541.7 497.7 566.3 506.3 591 507.5C615.7 508.7 640.3 502.3 664.8 499.5C689.3 496.7 713.7 497.3 738.2 496.5C762.7 495.7 787.3 493.3 812 496.7C836.7 500 861.3 509 886 513.8C910.7 518.7 935.3 519.3 947.7 519.7L960 520L960 541L947.7 541C935.3 541 910.7 541 886 541C861.3 541 836.7 541 812 541C787.3 541 762.7 541 738.2 541C713.7 541 689.3 541 664.8 541C640.3 541 615.7 541 591 541C566.3 541 541.7 541 517 541C492.3 541 467.7 541 443 541C418.3 541 393.7 541 369 541C344.3 541 319.7 541 295.2 541C270.7 541 246.3 541 221.8 541C197.3 541 172.7 541 148 541C123.3 541 98.7 541 74 541C49.3 541 24.7 541 12.3 541L0 541Z" fill="#4889de"></path></svg>